<mxfile host="Electron" modified="2023-10-15T17:40:07.536Z" agent="Mozilla/5.0 (X11; Linux x86_64) AppleWebKit/537.36 (KHTML, like Gecko) draw.io/21.7.5 Chrome/114.0.5735.289 Electron/25.8.1 Safari/537.36" etag="QGRGgbzU30905JHrAjNY" version="21.7.5" type="device">
  <diagram name="Page-1" id="lk9OrPjxy6ACjNmkNa1r">
    <mxGraphModel dx="1602" dy="4300" grid="1" gridSize="10" guides="1" tooltips="1" connect="1" arrows="1" fold="1" page="1" pageScale="1" pageWidth="1169" pageHeight="1654" math="0" shadow="0">
      <root>
        <mxCell id="0" />
        <mxCell id="1" parent="0" />
        <mxCell id="4AVkocqTqtbqXgifFJOB-22" value="" style="rounded=0;whiteSpace=wrap;html=1;" vertex="1" parent="1">
          <mxGeometry x="159.5" y="-2240" width="840.5" height="330" as="geometry" />
        </mxCell>
        <mxCell id="4AVkocqTqtbqXgifFJOB-21" value="" style="rounded=0;whiteSpace=wrap;html=1;" vertex="1" parent="1">
          <mxGeometry x="160" y="-2540" width="839.25" height="260" as="geometry" />
        </mxCell>
        <mxCell id="4AVkocqTqtbqXgifFJOB-20" value="" style="rounded=0;whiteSpace=wrap;html=1;" vertex="1" parent="1">
          <mxGeometry x="159.5" y="-2960" width="840.5" height="180" as="geometry" />
        </mxCell>
        <mxCell id="4AVkocqTqtbqXgifFJOB-19" value="" style="rounded=0;whiteSpace=wrap;html=1;" vertex="1" parent="1">
          <mxGeometry x="160" y="-2720" width="839.25" height="120" as="geometry" />
        </mxCell>
        <mxCell id="4AVkocqTqtbqXgifFJOB-18" value="" style="rounded=0;whiteSpace=wrap;html=1;" vertex="1" parent="1">
          <mxGeometry x="159.5" y="-3180" width="840.5" height="180" as="geometry" />
        </mxCell>
        <mxCell id="4AVkocqTqtbqXgifFJOB-1" value="&lt;font style=&quot;font-size: 24px;&quot; face=&quot;Comic Sans MS&quot;&gt;Diagrama arquitetura de camadas&lt;br&gt;Grupo 2&amp;nbsp;&lt;/font&gt;" style="text;html=1;strokeColor=none;fillColor=none;align=center;verticalAlign=middle;whiteSpace=wrap;rounded=0;" vertex="1" parent="1">
          <mxGeometry x="280" y="-3250" width="510" height="30" as="geometry" />
        </mxCell>
        <mxCell id="4AVkocqTqtbqXgifFJOB-2" value="" style="rounded=0;whiteSpace=wrap;html=1;" vertex="1" parent="1">
          <mxGeometry x="204" y="-3140" width="761" height="40" as="geometry" />
        </mxCell>
        <mxCell id="4AVkocqTqtbqXgifFJOB-3" value="" style="rounded=0;whiteSpace=wrap;html=1;" vertex="1" parent="1">
          <mxGeometry x="204" y="-3060" width="761" height="40" as="geometry" />
        </mxCell>
        <mxCell id="4AVkocqTqtbqXgifFJOB-4" value="" style="rounded=0;whiteSpace=wrap;html=1;" vertex="1" parent="1">
          <mxGeometry x="204" y="-2840" width="761" height="40" as="geometry" />
        </mxCell>
        <mxCell id="4AVkocqTqtbqXgifFJOB-5" value="" style="rounded=0;whiteSpace=wrap;html=1;" vertex="1" parent="1">
          <mxGeometry x="203.75" y="-2910" width="761" height="40" as="geometry" />
        </mxCell>
        <mxCell id="4AVkocqTqtbqXgifFJOB-6" value="" style="rounded=0;whiteSpace=wrap;html=1;" vertex="1" parent="1">
          <mxGeometry x="198.5" y="-2670" width="761" height="40" as="geometry" />
        </mxCell>
        <mxCell id="4AVkocqTqtbqXgifFJOB-7" value="" style="rounded=0;whiteSpace=wrap;html=1;" vertex="1" parent="1">
          <mxGeometry x="198.5" y="-2481" width="761" height="40" as="geometry" />
        </mxCell>
        <mxCell id="4AVkocqTqtbqXgifFJOB-8" value="" style="rounded=0;whiteSpace=wrap;html=1;" vertex="1" parent="1">
          <mxGeometry x="199.25" y="-2410" width="761" height="40" as="geometry" />
        </mxCell>
        <mxCell id="4AVkocqTqtbqXgifFJOB-9" value="" style="rounded=0;whiteSpace=wrap;html=1;" vertex="1" parent="1">
          <mxGeometry x="199.25" y="-2350" width="761" height="40" as="geometry" />
        </mxCell>
        <mxCell id="4AVkocqTqtbqXgifFJOB-10" value="" style="rounded=0;whiteSpace=wrap;html=1;" vertex="1" parent="1">
          <mxGeometry x="198.5" y="-2180" width="761" height="40" as="geometry" />
        </mxCell>
        <mxCell id="4AVkocqTqtbqXgifFJOB-11" value="" style="rounded=0;whiteSpace=wrap;html=1;" vertex="1" parent="1">
          <mxGeometry x="198.5" y="-2110" width="761" height="40" as="geometry" />
        </mxCell>
        <mxCell id="4AVkocqTqtbqXgifFJOB-12" value="" style="rounded=0;whiteSpace=wrap;html=1;" vertex="1" parent="1">
          <mxGeometry x="199.25" y="-2040" width="761" height="40" as="geometry" />
        </mxCell>
        <mxCell id="4AVkocqTqtbqXgifFJOB-13" value="Camada de Execução do &#39;extrair_diarios.py&#39; (Execução)" style="rounded=0;whiteSpace=wrap;html=1;" vertex="1" parent="1">
          <mxGeometry x="198.5" y="-1970" width="761" height="40" as="geometry" />
        </mxCell>
        <mxCell id="4AVkocqTqtbqXgifFJOB-23" value="" style="rounded=0;whiteSpace=wrap;html=1;" vertex="1" parent="1">
          <mxGeometry x="159.5" y="-1850" width="840.5" height="180" as="geometry" />
        </mxCell>
        <mxCell id="4AVkocqTqtbqXgifFJOB-24" value="" style="rounded=0;whiteSpace=wrap;html=1;" vertex="1" parent="1">
          <mxGeometry x="204" y="-1810" width="761" height="40" as="geometry" />
        </mxCell>
        <mxCell id="4AVkocqTqtbqXgifFJOB-70" style="edgeStyle=orthogonalEdgeStyle;rounded=0;orthogonalLoop=1;jettySize=auto;html=1;entryX=1;entryY=0.389;entryDx=0;entryDy=0;entryPerimeter=0;" edge="1" parent="1">
          <mxGeometry relative="1" as="geometry">
            <mxPoint x="960.25" y="-1710" as="sourcePoint" />
            <mxPoint x="995.25" y="-3089.98" as="targetPoint" />
            <Array as="points">
              <mxPoint x="1085.25" y="-1710" />
              <mxPoint x="1085.25" y="-3090" />
            </Array>
          </mxGeometry>
        </mxCell>
        <mxCell id="4AVkocqTqtbqXgifFJOB-25" value="" style="rounded=0;whiteSpace=wrap;html=1;" vertex="1" parent="1">
          <mxGeometry x="204" y="-1730" width="761" height="40" as="geometry" />
        </mxCell>
        <mxCell id="4AVkocqTqtbqXgifFJOB-26" value="&lt;b&gt;&lt;font style=&quot;font-size: 14px;&quot;&gt;Apresentação&lt;/font&gt;&lt;/b&gt;" style="text;html=1;strokeColor=none;fillColor=none;align=center;verticalAlign=middle;whiteSpace=wrap;rounded=0;" vertex="1" parent="1">
          <mxGeometry x="486.5" y="-3170" width="185" height="30" as="geometry" />
        </mxCell>
        <mxCell id="4AVkocqTqtbqXgifFJOB-27" value="&lt;span style=&quot;font-size: 14px;&quot;&gt;&lt;b&gt;Processamento de dados&lt;/b&gt;&lt;/span&gt;" style="text;html=1;strokeColor=none;fillColor=none;align=center;verticalAlign=middle;whiteSpace=wrap;rounded=0;" vertex="1" parent="1">
          <mxGeometry x="486.5" y="-2950" width="185" height="30" as="geometry" />
        </mxCell>
        <mxCell id="4AVkocqTqtbqXgifFJOB-28" value="&lt;span style=&quot;font-size: 14px;&quot;&gt;&lt;b&gt;Gerenciamento de Dados&lt;/b&gt;&lt;/span&gt;" style="text;html=1;strokeColor=none;fillColor=none;align=center;verticalAlign=middle;whiteSpace=wrap;rounded=0;" vertex="1" parent="1">
          <mxGeometry x="486.5" y="-2710" width="185" height="30" as="geometry" />
        </mxCell>
        <mxCell id="4AVkocqTqtbqXgifFJOB-29" value="&lt;span style=&quot;font-size: 14px;&quot;&gt;&lt;b&gt;Integração e testes&lt;/b&gt;&lt;/span&gt;" style="text;html=1;strokeColor=none;fillColor=none;align=center;verticalAlign=middle;whiteSpace=wrap;rounded=0;" vertex="1" parent="1">
          <mxGeometry x="486.5" y="-2530" width="185" height="30" as="geometry" />
        </mxCell>
        <mxCell id="4AVkocqTqtbqXgifFJOB-30" value="&lt;span style=&quot;font-size: 14px;&quot;&gt;&lt;b&gt;Pós-processamento&lt;/b&gt;&lt;/span&gt;" style="text;html=1;strokeColor=none;fillColor=none;align=center;verticalAlign=middle;whiteSpace=wrap;rounded=0;" vertex="1" parent="1">
          <mxGeometry x="486.5" y="-2230" width="185" height="30" as="geometry" />
        </mxCell>
        <mxCell id="4AVkocqTqtbqXgifFJOB-32" value="&lt;span style=&quot;font-size: 14px;&quot;&gt;&lt;b&gt;Configuração e finalização&lt;/b&gt;&lt;/span&gt;" style="text;html=1;strokeColor=none;fillColor=none;align=center;verticalAlign=middle;whiteSpace=wrap;rounded=0;" vertex="1" parent="1">
          <mxGeometry x="487.25" y="-1840" width="185" height="30" as="geometry" />
        </mxCell>
        <mxCell id="4AVkocqTqtbqXgifFJOB-33" value="Camada de Interface com o usuário" style="text;html=1;strokeColor=none;fillColor=none;align=center;verticalAlign=middle;whiteSpace=wrap;rounded=0;" vertex="1" parent="1">
          <mxGeometry x="435" y="-3135" width="300" height="30" as="geometry" />
        </mxCell>
        <mxCell id="4AVkocqTqtbqXgifFJOB-34" value="Camada de lógica de Aplicação" style="text;html=1;strokeColor=none;fillColor=none;align=center;verticalAlign=middle;whiteSpace=wrap;rounded=0;" vertex="1" parent="1">
          <mxGeometry x="429" y="-3055" width="300" height="30" as="geometry" />
        </mxCell>
        <mxCell id="4AVkocqTqtbqXgifFJOB-35" value="Camada de Manipulação de Entrada/Saída de Texto (Tika)" style="text;html=1;strokeColor=none;fillColor=none;align=center;verticalAlign=middle;whiteSpace=wrap;rounded=0;" vertex="1" parent="1">
          <mxGeometry x="409.13" y="-2905" width="341" height="30" as="geometry" />
        </mxCell>
        <mxCell id="4AVkocqTqtbqXgifFJOB-36" value="Camada de Processamento Personalizado (post_proc.py)" style="text;html=1;strokeColor=none;fillColor=none;align=center;verticalAlign=middle;whiteSpace=wrap;rounded=0;" vertex="1" parent="1">
          <mxGeometry x="409.13" y="-2835" width="341" height="30" as="geometry" />
        </mxCell>
        <mxCell id="4AVkocqTqtbqXgifFJOB-38" value="Camada de Gerenciamento de Informação (Gerenciamento de Dados)" style="text;html=1;align=center;verticalAlign=middle;resizable=0;points=[];autosize=1;strokeColor=none;fillColor=none;" vertex="1" parent="1">
          <mxGeometry x="379.75" y="-2665" width="400" height="30" as="geometry" />
        </mxCell>
        <mxCell id="4AVkocqTqtbqXgifFJOB-39" value="Camada de Integração com Docker (Docker)" style="text;html=1;strokeColor=none;fillColor=none;align=center;verticalAlign=middle;whiteSpace=wrap;rounded=0;" vertex="1" parent="1">
          <mxGeometry x="444.75" y="-2476" width="279" height="30" as="geometry" />
        </mxCell>
        <mxCell id="4AVkocqTqtbqXgifFJOB-40" value="Camada de Gerenciamento de Tarefas (Tarefas)" style="text;html=1;strokeColor=none;fillColor=none;align=center;verticalAlign=middle;whiteSpace=wrap;rounded=0;" vertex="1" parent="1">
          <mxGeometry x="439.75" y="-2405" width="289" height="30" as="geometry" />
        </mxCell>
        <mxCell id="4AVkocqTqtbqXgifFJOB-41" value="Camada de Testes (Testes)" style="text;html=1;strokeColor=none;fillColor=none;align=center;verticalAlign=middle;whiteSpace=wrap;rounded=0;" vertex="1" parent="1">
          <mxGeometry x="490.5" y="-2345" width="189" height="30" as="geometry" />
        </mxCell>
        <mxCell id="4AVkocqTqtbqXgifFJOB-62" style="edgeStyle=orthogonalEdgeStyle;rounded=0;orthogonalLoop=1;jettySize=auto;html=1;exitX=0.5;exitY=1;exitDx=0;exitDy=0;" edge="1" parent="1" source="4AVkocqTqtbqXgifFJOB-42" target="4AVkocqTqtbqXgifFJOB-43">
          <mxGeometry relative="1" as="geometry" />
        </mxCell>
        <mxCell id="4AVkocqTqtbqXgifFJOB-42" value="Camada de Segmentação de Diários Municipais (Segmentação)" style="text;html=1;strokeColor=none;fillColor=none;align=center;verticalAlign=middle;whiteSpace=wrap;rounded=0;" vertex="1" parent="1">
          <mxGeometry x="394" y="-2175" width="370" height="30" as="geometry" />
        </mxCell>
        <mxCell id="4AVkocqTqtbqXgifFJOB-63" style="edgeStyle=orthogonalEdgeStyle;rounded=0;orthogonalLoop=1;jettySize=auto;html=1;exitX=0.5;exitY=1;exitDx=0;exitDy=0;entryX=0.508;entryY=-0.004;entryDx=0;entryDy=0;entryPerimeter=0;" edge="1" parent="1" source="4AVkocqTqtbqXgifFJOB-43" target="4AVkocqTqtbqXgifFJOB-12">
          <mxGeometry relative="1" as="geometry" />
        </mxCell>
        <mxCell id="4AVkocqTqtbqXgifFJOB-43" value="Camada de Extração de Atos (Extração de Atos)" style="text;html=1;strokeColor=none;fillColor=none;align=center;verticalAlign=middle;whiteSpace=wrap;rounded=0;" vertex="1" parent="1">
          <mxGeometry x="423.75" y="-2105" width="321" height="30" as="geometry" />
        </mxCell>
        <mxCell id="4AVkocqTqtbqXgifFJOB-44" value="Camada de Geração de Base de Análise (Base de Análise)" style="text;html=1;strokeColor=none;fillColor=none;align=center;verticalAlign=middle;whiteSpace=wrap;rounded=0;" vertex="1" parent="1">
          <mxGeometry x="411.75" y="-2035" width="346.5" height="30" as="geometry" />
        </mxCell>
        <mxCell id="4AVkocqTqtbqXgifFJOB-46" value="Camada de Configuração do Docker (Configuração Docker)" style="text;html=1;strokeColor=none;fillColor=none;align=center;verticalAlign=middle;whiteSpace=wrap;rounded=0;" vertex="1" parent="1">
          <mxGeometry x="400.5" y="-1805" width="369" height="30" as="geometry" />
        </mxCell>
        <mxCell id="4AVkocqTqtbqXgifFJOB-47" value="Camada de Finalização (Finalização)" style="text;html=1;strokeColor=none;fillColor=none;align=center;verticalAlign=middle;whiteSpace=wrap;rounded=0;" vertex="1" parent="1">
          <mxGeometry x="444" y="-1725" width="281" height="30" as="geometry" />
        </mxCell>
        <mxCell id="4AVkocqTqtbqXgifFJOB-49" value="" style="endArrow=classic;html=1;rounded=0;exitX=0.491;exitY=1.017;exitDx=0;exitDy=0;exitPerimeter=0;entryX=0.5;entryY=0;entryDx=0;entryDy=0;" edge="1" parent="1" source="4AVkocqTqtbqXgifFJOB-2" target="4AVkocqTqtbqXgifFJOB-34">
          <mxGeometry width="50" height="50" relative="1" as="geometry">
            <mxPoint x="580" y="-2890" as="sourcePoint" />
            <mxPoint x="630" y="-2940" as="targetPoint" />
          </mxGeometry>
        </mxCell>
        <mxCell id="4AVkocqTqtbqXgifFJOB-50" value="" style="endArrow=classic;html=1;rounded=0;exitX=0.5;exitY=1;exitDx=0;exitDy=0;entryX=0.5;entryY=0;entryDx=0;entryDy=0;" edge="1" parent="1" source="4AVkocqTqtbqXgifFJOB-18" target="4AVkocqTqtbqXgifFJOB-20">
          <mxGeometry width="50" height="50" relative="1" as="geometry">
            <mxPoint x="580" y="-2890" as="sourcePoint" />
            <mxPoint x="630" y="-2940" as="targetPoint" />
          </mxGeometry>
        </mxCell>
        <mxCell id="4AVkocqTqtbqXgifFJOB-52" value="" style="endArrow=classic;html=1;rounded=0;exitX=0.494;exitY=1.189;exitDx=0;exitDy=0;exitPerimeter=0;entryX=0.5;entryY=0;entryDx=0;entryDy=0;" edge="1" parent="1" source="4AVkocqTqtbqXgifFJOB-35" target="4AVkocqTqtbqXgifFJOB-36">
          <mxGeometry width="50" height="50" relative="1" as="geometry">
            <mxPoint x="580" y="-2890" as="sourcePoint" />
            <mxPoint x="630" y="-2940" as="targetPoint" />
          </mxGeometry>
        </mxCell>
        <mxCell id="4AVkocqTqtbqXgifFJOB-53" value="" style="endArrow=classic;html=1;rounded=0;" edge="1" parent="1" source="4AVkocqTqtbqXgifFJOB-20" target="4AVkocqTqtbqXgifFJOB-19">
          <mxGeometry width="50" height="50" relative="1" as="geometry">
            <mxPoint x="585" y="-2730" as="sourcePoint" />
            <mxPoint x="635" y="-2780" as="targetPoint" />
          </mxGeometry>
        </mxCell>
        <mxCell id="4AVkocqTqtbqXgifFJOB-55" value="" style="endArrow=classic;html=1;rounded=0;entryX=0.5;entryY=0;entryDx=0;entryDy=0;exitX=0.5;exitY=1;exitDx=0;exitDy=0;" edge="1" parent="1" source="4AVkocqTqtbqXgifFJOB-19" target="4AVkocqTqtbqXgifFJOB-21">
          <mxGeometry width="50" height="50" relative="1" as="geometry">
            <mxPoint x="580" y="-2590" as="sourcePoint" />
            <mxPoint x="630" y="-2640" as="targetPoint" />
          </mxGeometry>
        </mxCell>
        <mxCell id="4AVkocqTqtbqXgifFJOB-57" value="" style="endArrow=classic;html=1;rounded=0;entryX=0.5;entryY=0;entryDx=0;entryDy=0;" edge="1" parent="1" target="4AVkocqTqtbqXgifFJOB-8">
          <mxGeometry width="50" height="50" relative="1" as="geometry">
            <mxPoint x="580" y="-2440" as="sourcePoint" />
            <mxPoint x="630" y="-2440" as="targetPoint" />
          </mxGeometry>
        </mxCell>
        <mxCell id="4AVkocqTqtbqXgifFJOB-58" value="" style="endArrow=classic;html=1;rounded=0;exitX=0.482;exitY=1.189;exitDx=0;exitDy=0;exitPerimeter=0;" edge="1" parent="1" source="4AVkocqTqtbqXgifFJOB-40">
          <mxGeometry width="50" height="50" relative="1" as="geometry">
            <mxPoint x="580" y="-2390" as="sourcePoint" />
            <mxPoint x="579" y="-2350" as="targetPoint" />
          </mxGeometry>
        </mxCell>
        <mxCell id="4AVkocqTqtbqXgifFJOB-59" value="" style="endArrow=classic;html=1;rounded=0;exitX=0.5;exitY=1;exitDx=0;exitDy=0;entryX=0.5;entryY=0;entryDx=0;entryDy=0;" edge="1" parent="1" source="4AVkocqTqtbqXgifFJOB-21" target="4AVkocqTqtbqXgifFJOB-22">
          <mxGeometry width="50" height="50" relative="1" as="geometry">
            <mxPoint x="580" y="-2190" as="sourcePoint" />
            <mxPoint x="630" y="-2240" as="targetPoint" />
          </mxGeometry>
        </mxCell>
        <mxCell id="4AVkocqTqtbqXgifFJOB-67" value="" style="endArrow=classic;html=1;rounded=0;entryX=0.513;entryY=-0.108;entryDx=0;entryDy=0;entryPerimeter=0;" edge="1" parent="1" source="4AVkocqTqtbqXgifFJOB-44" target="4AVkocqTqtbqXgifFJOB-13">
          <mxGeometry width="50" height="50" relative="1" as="geometry">
            <mxPoint x="580" y="-1990" as="sourcePoint" />
            <mxPoint x="630" y="-2040" as="targetPoint" />
          </mxGeometry>
        </mxCell>
        <mxCell id="4AVkocqTqtbqXgifFJOB-68" value="" style="endArrow=classic;html=1;rounded=0;exitX=0.493;exitY=1.005;exitDx=0;exitDy=0;exitPerimeter=0;entryX=0.494;entryY=-0.029;entryDx=0;entryDy=0;entryPerimeter=0;" edge="1" parent="1" source="4AVkocqTqtbqXgifFJOB-22" target="4AVkocqTqtbqXgifFJOB-23">
          <mxGeometry width="50" height="50" relative="1" as="geometry">
            <mxPoint x="580" y="-1990" as="sourcePoint" />
            <mxPoint x="630" y="-2040" as="targetPoint" />
          </mxGeometry>
        </mxCell>
        <mxCell id="4AVkocqTqtbqXgifFJOB-69" value="" style="endArrow=classic;html=1;rounded=0;exitX=0.482;exitY=1.058;exitDx=0;exitDy=0;exitPerimeter=0;entryX=0.466;entryY=-0.089;entryDx=0;entryDy=0;entryPerimeter=0;" edge="1" parent="1" source="4AVkocqTqtbqXgifFJOB-24" target="4AVkocqTqtbqXgifFJOB-47">
          <mxGeometry width="50" height="50" relative="1" as="geometry">
            <mxPoint x="580" y="-1690" as="sourcePoint" />
            <mxPoint x="630" y="-1740" as="targetPoint" />
          </mxGeometry>
        </mxCell>
        <mxCell id="4AVkocqTqtbqXgifFJOB-71" value="" style="endArrow=classic;html=1;rounded=0;exitX=1;exitY=0.5;exitDx=0;exitDy=0;entryX=1;entryY=0.5;entryDx=0;entryDy=0;" edge="1" parent="1" source="4AVkocqTqtbqXgifFJOB-9" target="4AVkocqTqtbqXgifFJOB-7">
          <mxGeometry width="50" height="50" relative="1" as="geometry">
            <mxPoint x="580" y="-2280" as="sourcePoint" />
            <mxPoint x="630" y="-2330" as="targetPoint" />
            <Array as="points">
              <mxPoint x="990" y="-2330" />
              <mxPoint x="990" y="-2461" />
            </Array>
          </mxGeometry>
        </mxCell>
      </root>
    </mxGraphModel>
  </diagram>
</mxfile>
